name Walk10.mot
datacolumns 19
datarows 17
range 2.73000000 2.81000000
endheader

                time	   L_ground_force_vx	   L_ground_force_vy	   L_ground_force_vz	   L_ground_force_px	   L_ground_force_py	   L_ground_force_pz	   R_ground_force_vx	   R_ground_force_vy	   R_ground_force_vz	   R_ground_force_px	   R_ground_force_py	   R_ground_force_pz	   L_ground_torque_x	   L_ground_torque_y	   L_ground_torque_z	   R_ground_torque_x	   R_ground_torque_y	   R_ground_torque_z	
          2.73000000	         -4.49147269	        100.61001716	         -1.61697313	         -0.05116874	          0.00000000	         -0.00770640	         -0.00000000	          0.00000000	          0.00000000	          0.00000000	          0.00000000	          0.00000000	          0.00000000	          0.08782287	          0.00000000	          0.00000000	          0.00000000	          0.00000000	
          2.73500000	         -9.94715051	        146.44786993	         -1.53783405	         -0.11200434	          0.00000000	         -0.01757130	         -0.00000000	          0.00000000	          0.00000000	          0.00000000	          0.00000000	          0.00000000	          0.00000000	          0.13020559	          0.00000000	          0.00000000	          0.00000000	          0.00000000	
          2.74000000	        -16.38447621	        193.82305959	         -1.89123678	         -0.16514544	          0.00000000	         -0.02624712	         -0.00000000	          0.00000000	          0.00000000	         -0.00000000	          0.00000000	         -0.00000000	          0.00000000	          0.17351876	          0.00000000	          0.00000000	          0.00000000	          0.00000000	
          2.74500000	        -23.83939348	        240.81618296	         -2.59276295	         -0.20892187	          0.00000000	         -0.03349242	         -0.00000000	          0.00000000	          0.00000000	         -0.00000000	          0.00000000	         -0.00000000	          0.00000000	          0.21680474	          0.00000000	          0.00000000	          0.00000000	          0.00000000	
          2.75000000	        -32.26055214	        286.16559344	         -3.41860429	         -0.24298920	          0.00000000	         -0.03928419	         -0.00000000	         -0.00000000	          0.00000000	         -0.00000000	          0.00000000	         -0.00000000	          0.00000000	          0.25962997	          0.00000000	          0.00000000	          0.00000000	          0.00000000	
          2.75500000	        -41.46797992	        329.10681467	         -4.10228723	         -0.26788320	          0.00000000	         -0.04373914	         -0.00000000	         -0.00000001	          0.00000000	         -0.00000000	          0.00000000	         -0.00000000	          0.00000000	          0.30091264	          0.00000000	          0.00000000	          0.00000000	          0.00000000	
          2.76000000	        -51.19386967	        369.21584987	         -4.41650868	         -0.28465953	          0.00000000	         -0.04704468	         -0.00000000	         -0.00000001	          0.00000000	         -0.00000000	          0.00000000	         -0.00000000	          0.00000000	          0.33893250	          0.00000000	          0.00000000	          0.00000000	          0.00000000	
          2.76500000	        -61.18288740	        406.37256332	         -4.20333892	         -0.29462573	          0.00000000	         -0.04941335	         -0.00000000	         -0.00000002	          0.00000000	         -0.00000000	          0.00000000	         -0.00000000	          0.00000000	          0.37130388	          0.00000000	          0.00000000	          0.00000000	          0.00000000	
          2.77000000	        -71.28808559	        440.71551118	         -3.37434674	         -0.29915085	          0.00000000	         -0.05105629	          0.00000000	         -0.00000002	         -0.00000000	         -0.00000000	          0.00000000	         -0.00000000	          0.00000000	          0.39604111	          0.00000000	          0.00000000	         -0.00000000	          0.00000000	
          2.77500000	        -81.46915707	        472.51040502	         -1.91878557	         -0.29954702	          0.00000000	         -0.05215909	          0.00000000	         -0.00000003	         -0.00000000	         -0.00000000	          0.00000000	         -0.00000000	          0.00000000	          0.41271738	          0.00000000	          0.00000000	         -0.00000000	          0.00000000	
          2.78000000	        -91.68057491	        501.99335973	          0.07797147	         -0.29700288	          0.00000000	         -0.05287013	          0.00000000	         -0.00000004	         -0.00000000	         -0.00000000	          0.00000000	         -0.00000000	          0.00000000	          0.42392964	          0.00000000	          0.00000000	         -0.00000000	          0.00000000	
          2.78500000	       -101.76547998	        529.31879554	          2.45674778	         -0.29253893	          0.00000000	         -0.05330505	          0.00000000	         -0.00000005	         -0.00000000	         -0.00000000	          0.00000000	         -0.00000000	          0.00000000	          0.43649158	          0.00000000	          0.00000000	         -0.00000000	          0.00000000	
          2.79000000	       -111.46834155	        554.60318468	          5.06337621	         -0.28699018	          0.00000000	         -0.05355267	          0.00000001	         -0.00000006	         -0.00000000	         -0.00000000	          0.00000000	         -0.00000000	          0.00000000	          0.45923950	          0.00000000	          0.00000000	         -0.00000000	          0.00000000	
          2.79500000	       -120.52182002	        577.97573001	          7.78424945	         -0.28100667	          0.00000000	         -0.05368010	          0.00000001	         -0.00000007	         -0.00000000	         -0.00000000	          0.00000000	         -0.00000000	          0.00000000	          0.50075491	          0.00000000	          0.00000000	         -0.00000000	          0.00000000	
          2.80000000	       -128.70120167	        599.55462593	         10.53822370	         -0.27506544	          0.00000000	         -0.05373660	          0.00000001	         -0.00000007	         -0.00000000	         -0.00000000	          0.00000000	         -0.00000000	          0.00000000	          0.56718299	          0.00000000	          0.00000000	         -0.00000000	          0.00000000	
          2.80500000	       -135.82286081	        619.43466658	         13.28205333	         -0.26949369	          0.00000000	         -0.05375623	          0.00000001	         -0.00000007	         -0.00000000	         -0.00000000	          0.00000000	         -0.00000000	          0.00000000	          0.66025747	          0.00000000	          0.00000000	         -0.00000000	          0.00000000	
          2.81000000	       -141.73847610	        637.73321607	         16.00819568	         -0.26449457	          0.00000000	         -0.05376062	          0.00000001	         -0.00000005	         -0.00000000	          0.00000000	          0.00000000	          0.00000000	          0.00000000	          0.77859818	          0.00000000	          0.00000000	         -0.00000000	          0.00000000	
